<svg xmlns="http://www.w3.org/2000/svg" viewBox="0 0 100 100" width="192" height="192">
  <defs>
    <radialGradient id="explosionGrad" cx="50%" cy="50%" r="50%">
      <stop offset="0%" style="stop-color:#ff4444;stop-opacity:1" />
      <stop offset="30%" style="stop-color:#ff8800;stop-opacity:1" />
      <stop offset="70%" style="stop-color:#ffaa00;stop-opacity:0.8" />
      <stop offset="100%" style="stop-color:#ff0000;stop-opacity:0.3" />
    </radialGradient>
  </defs>
  
  <!-- Explosion burst rays -->
  <g transform="translate(50,50)">
    <path d="M0,-30 L3,-15 L0,-12 L-3,-15 Z" fill="#ffff00" transform="rotate(0)" opacity="0.9"/>
    <path d="M0,-25 L2,-12 L0,-10 L-2,-12 Z" fill="#ff8800" transform="rotate(30)" opacity="0.8"/>
    <path d="M0,-28 L3,-14 L0,-11 L-3,-14 Z" fill="#ff4444" transform="rotate(60)" opacity="0.9"/>
    <path d="M0,-22 L2,-11 L0,-9 L-2,-11 Z" fill="#ffaa00" transform="rotate(90)" opacity="0.7"/>
    <path d="M0,-26 L3,-13 L0,-10 L-3,-13 Z" fill="#ff0000" transform="rotate(120)" opacity="0.8"/>
    <path d="M0,-24 L2,-12 L0,-9 L-2,-12 Z" fill="#ff8800" transform="rotate(150)" opacity="0.9"/>
    <path d="M0,-29 L3,-15 L0,-12 L-3,-15 Z" fill="#ffff00" transform="rotate(180)" opacity="0.8"/>
    <path d="M0,-21 L2,-10 L0,-8 L-2,-10 Z" fill="#ff4444" transform="rotate(210)" opacity="0.7"/>
    <path d="M0,-27 L3,-14 L0,-11 L-3,-14 Z" fill="#ffaa00" transform="rotate(240)" opacity="0.9"/>
    <path d="M0,-23 L2,-11 L0,-9 L-2,-11 Z" fill="#ff0000" transform="rotate(270)" opacity="0.8"/>
    <path d="M0,-25 L3,-13 L0,-10 L-3,-13 Z" fill="#ff8800" transform="rotate(300)" opacity="0.7"/>
    <path d="M0,-28 L2,-14 L0,-11 L-2,-14 Z" fill="#ffff00" transform="rotate(330)" opacity="0.9"/>
  </g>
  
  <!-- Main explosion center -->
  <circle cx="50" cy="50" r="18" fill="url(#explosionGrad)" opacity="0.9"/>
  
  <!-- Inner bright core -->
  <circle cx="50" cy="50" r="8" fill="#ffffff" opacity="0.8"/>
  
  <!-- Spark particles -->
  <circle cx="25" cy="30" r="1.5" fill="#ffff00" opacity="0.7"/>
  <circle cx="75" cy="25" r="1" fill="#ff8800" opacity="0.8"/>
  <circle cx="80" cy="70" r="1.5" fill="#ff4444" opacity="0.6"/>
  <circle cx="20" cy="75" r="1" fill="#ffaa00" opacity="0.9"/>
  <circle cx="35" cy="15" r="1.2" fill="#ff0000" opacity="0.7"/>
  <circle cx="85" cy="45" r="1" fill="#ffff00" opacity="0.8"/>
  <circle cx="15" cy="55" r="1.3" fill="#ff8800" opacity="0.6"/>
  <circle cx="65" cy="85" r="1" fill="#ff4444" opacity="0.7"/>
</svg>